<?xml version="1.0" encoding="UTF-8"?>
<svg xmlns="http://www.w3.org/2000/svg" viewBox="0 0 32 32">
    <!-- 机器人头部/脸部 - 深灰色金属 -->
    <rect x="6" y="6" width="20" height="20" rx="6" fill="#FFB6C1" stroke="#F08080" stroke-width="1.5" />

    <!-- 猪鼻子 - 深粉色 -->
    <ellipse cx="16" cy="17" rx="5" ry="4" fill="#ff6b8b" />
    <circle cx="14" cy="16" r="1" fill="#000" />
    <circle cx="18" cy="16" r="1" fill="#000" />

    <!-- 微笑嘴巴 - 添加友好的笑容 -->
    <path d="M12 21 C14 24, 18 24, 20 21" stroke="#fff" stroke-width="1.5" fill="none" stroke-linecap="round" />

    <!-- 猪耳朵 - 深粉色 -->
    <path d="M5 11 L3 9 L5 7 L7 9 Z" fill="#ff4d6d" />
    <path d="M27 11 L29 9 L27 7 L25 9 Z" fill="#ff4d6d" />

    <!-- 眼睛 - 亮蓝色，改为圆形更友好 -->
    <circle cx="12" cy="12" r="2" fill="#00b7ff" />
    <circle cx="20" cy="12" r="2" fill="#00b7ff" />
    <circle cx="12.5" cy="11.5" r="0.8" fill="white" />
    <circle cx="20.5" cy="11.5" r="0.8" fill="white" />

    <!-- 天线 -->
    <line x1="16" y1="6" x2="16" y2="3" stroke="#222" stroke-width="1.5" />
    <circle cx="16" cy="2" r="1.2" fill="#ff4d6d" />

    <!-- 机器人细节 - 面板线条 -->
    <line x1="10" y1="24" x2="22" y2="24" stroke="#222" stroke-width="1.5" />
    <circle cx="12" cy="24" r="1.2" fill="#00ff66" />
    <circle cx="16" cy="24" r="1.2" fill="#ffcc00" />
    <circle cx="20" cy="24" r="1.2" fill="#ff3333" />

    <!-- 数据回路线 -->
    <path d="M8 26 C10 28, 22 28, 24 26" stroke="#00b7ff" stroke-width="1.2" fill="none" />

    <!-- 高光效果增强可见度 -->
    <line x1="8" y1="8" x2="12" y2="8" stroke="#777" stroke-width="1" />
    <line x1="7" y1="20" x2="7" y2="16" stroke="#777" stroke-width="1" />
</svg> 